<svg width="337" height="120" viewBox="0 0 337 120" fill="none" xmlns="http://www.w3.org/2000/svg">
<path d="M143.328 0.649693L143.986 2.62149C144.035 2.76723 144.171 2.86551 144.325 2.86551C144.522 2.86551 144.682 2.70567 144.682 2.5085V1.39921C144.682 0.589393 145.34 -0.0749918 146.146 0.006854C153.365 0.740295 159 6.83855 159 14.2522C159 21.666 153.365 27.7636 146.145 28.4967C145.34 28.5785 144.682 27.9143 144.682 27.1048V26.0349C144.682 25.8162 144.504 25.639 144.286 25.639C144.136 25.639 143.999 25.7237 143.932 25.8578L143.314 27.0921C143.215 27.2913 142.924 27.2703 142.854 27.0589C142.675 26.5226 141.916 26.5225 141.737 27.0589C141.658 27.2964 141.318 27.2832 141.257 27.0403C141.131 26.5359 140.408 26.5534 140.306 27.0633L140.154 27.8245C140.104 28.0759 139.753 28.098 139.672 27.8548L139.014 25.883C138.965 25.7372 138.829 25.639 138.675 25.639C138.478 25.639 138.318 25.7988 138.318 25.996V28.2014C138.318 28.4045 138.152 28.5684 137.949 28.5657C130.212 28.3699 124 22.0367 124 14.2522C124 6.83848 129.634 0.74018 136.854 0.00683324C137.66 -0.075001 138.318 0.589385 138.318 1.39921V2.46959C138.318 2.68825 138.496 2.86551 138.714 2.86551C138.864 2.86551 139.001 2.78078 139.068 2.64665L139.686 1.41239C139.785 1.21315 140.076 1.23412 140.146 1.44559C140.325 1.98189 141.084 1.98199 141.263 1.44559C141.342 1.20805 141.682 1.22128 141.743 1.46415C141.869 1.96854 142.592 1.9511 142.694 1.4412L142.846 0.679967C142.896 0.42857 143.247 0.406501 143.328 0.649693ZM147.557 6.83565C146.929 6.59187 146.226 6.78897 145.754 7.27088C144.968 8.07474 144.399 8.78624 143.981 9.54813C143.356 10.6911 143.01 12.0682 143 14.2591C143.008 16.4919 142.782 18.361 141.93 20.1175C141.201 21.6181 140.07 22.9187 138.49 24.2805C138.381 24.3739 138.318 24.5095 138.318 24.6524C138.318 24.9211 138.536 25.139 138.805 25.139H139.114C139.221 25.139 139.317 25.2078 139.351 25.3098C139.486 25.7165 140.073 25.6801 140.157 25.26L140.411 23.9886C140.439 23.8487 140.56 23.7469 140.703 23.7434C140.846 23.74 140.972 23.8361 141.006 23.9747L141.132 24.479C141.249 24.9471 141.905 24.9726 142.058 24.5149C142.134 24.2869 142.456 24.2869 142.532 24.5149L142.765 25.2138C142.902 25.6249 143.468 25.6652 143.662 25.2776C143.705 25.1926 143.791 25.139 143.886 25.139H144.094C144.419 25.139 144.682 24.876 144.682 24.5517V23.6726C144.682 22.8628 145.344 22.2204 146.14 22.0729C149.837 21.3878 152.637 18.1471 152.637 14.2522C152.637 10.8733 150.529 7.98825 147.557 6.83565ZM142.589 4.51582C142.561 4.65576 142.44 4.75759 142.297 4.76102C142.154 4.76445 142.028 4.66838 141.994 4.52981L141.868 4.02548C141.751 3.55731 141.095 3.53184 140.942 3.98954C140.866 4.21759 140.544 4.21759 140.468 3.98954L140.235 3.29067C140.098 2.87952 139.532 2.83926 139.338 3.22684C139.295 3.31183 139.209 3.36551 139.114 3.36551H138.906C138.581 3.36551 138.318 3.62844 138.318 3.95277V4.83133C138.318 5.64088 137.656 6.28304 136.86 6.43053C133.163 7.1155 130.363 10.357 130.363 14.2522C130.363 17.6783 132.53 20.5959 135.568 21.715C136.165 21.935 136.828 21.7636 137.287 21.3234C138.239 20.4118 138.839 19.6151 139.231 18.8069C139.795 17.647 140.009 16.3073 140 14.2581V14.2454C140.012 11.7259 140.414 9.81654 141.35 8.1077C142.119 6.70331 143.204 5.52012 144.512 4.28871C144.62 4.18736 144.682 4.04618 144.682 3.8983C144.682 3.60405 144.443 3.36551 144.149 3.36551H143.886C143.779 3.36551 143.683 3.29664 143.649 3.19462C143.514 2.788 142.927 2.82432 142.843 3.24451L142.589 4.51582Z" fill="black"/>
<path d="M122.562 113.625L91.5625 117.625L87.8125 103.5H73.5625L70.4375 117.625L38.5625 114.5L63.4375 31.2499L98.1875 29.4999L122.562 113.625ZM85.5625 84.3749L80.8125 62.6249L76.1875 84.3749H85.5625ZM157.625 30.9999L150.75 116.125L124.375 117.5V32.7499L157.625 30.9999ZM234.812 58.8749C234.812 62.9166 234.208 66.4999 233 69.6249C231.792 72.7499 230.125 75.4791 228 77.8124C225.917 80.1458 223.458 82.1249 220.625 83.7499C217.792 85.3749 214.75 86.7083 211.5 87.7499C208.292 88.7499 204.958 89.4999 201.5 89.9999C198.042 90.4583 194.646 90.7083 191.312 90.7499V119.875H162.188C162.188 110.333 162.208 100.833 162.25 91.3749C162.292 81.9166 162.354 72.3749 162.438 62.7499C162.521 57.6666 162.542 52.5833 162.5 47.4999C162.458 42.4166 162.562 37.2916 162.812 32.1249C168.146 30.5416 173.479 29.3541 178.812 28.5624C184.146 27.7708 189.646 27.3749 195.312 27.3749C198.521 27.3749 201.729 27.6458 204.938 28.1874C208.146 28.6874 211.208 29.4999 214.125 30.6249C217.083 31.7499 219.812 33.1666 222.312 34.8749C224.854 36.5416 227.042 38.5416 228.875 40.8749C230.708 43.2083 232.146 45.8749 233.188 48.8749C234.271 51.8333 234.812 55.1666 234.812 58.8749ZM207.062 60.9999C207.062 58.2916 206.229 56.1874 204.562 54.6874C202.938 53.1458 200.812 52.3749 198.188 52.3749C197.312 52.3749 196.396 52.4583 195.438 52.6249C194.521 52.7499 193.646 52.9166 192.812 53.1249L192.062 71.3749C192.646 71.4583 193.208 71.4999 193.75 71.4999C194.292 71.4999 194.854 71.4999 195.438 71.4999C196.938 71.4999 198.375 71.2499 199.75 70.7499C201.167 70.2499 202.417 69.5416 203.5 68.6249C204.583 67.6666 205.438 66.5624 206.062 65.3124C206.729 64.0208 207.062 62.5833 207.062 60.9999ZM297.438 28.8749C297.188 32.7916 296.958 36.6666 296.75 40.4999C296.542 44.3333 296.271 48.2083 295.938 52.1249L269.438 53.4999L268.812 61.3749H287.438L286.062 80.7499L267.312 81.3749L266.688 90.4999H282.188H293.188C292.938 95.0833 292.667 99.6458 292.375 104.187C292.125 108.687 291.896 113.208 291.688 117.75L237.812 119L239.812 28.8749H297.438Z" fill="black"/>
</svg>
