<svg width="473" height="373" viewBox="0 0 473 373" fill="none" xmlns="http://www.w3.org/2000/svg">
<path d="M210.328 95.6491L210.986 97.6209C211.035 97.7667 211.171 97.8649 211.325 97.8649C211.522 97.8649 211.682 97.7051 211.682 97.5079V96.3991C211.682 95.5896 212.34 94.9254 213.145 95.0072C220.365 95.7404 226 101.839 226 109.253C226 116.666 220.365 122.764 213.146 123.497C212.34 123.579 211.682 122.915 211.682 122.105V121.034C211.682 120.816 211.504 120.638 211.286 120.638C211.136 120.638 210.999 120.723 210.932 120.857L210.314 122.092C210.215 122.291 209.924 122.27 209.854 122.058C209.675 121.522 208.916 121.522 208.737 122.058C208.658 122.296 208.318 122.283 208.257 122.04C208.131 121.535 207.408 121.553 207.306 122.063L207.154 122.824C207.104 123.075 206.753 123.097 206.672 122.854L206.014 120.882C205.965 120.737 205.829 120.638 205.675 120.638C205.478 120.638 205.318 120.798 205.318 120.995V123.202C205.318 123.405 205.152 123.569 204.949 123.566C197.212 123.37 191 117.037 191 109.253C191 101.839 196.635 95.7403 203.855 95.0072C204.66 94.9254 205.318 95.5896 205.318 96.3991V97.469C205.318 97.6877 205.496 97.8649 205.714 97.8649C205.864 97.8649 206.001 97.7802 206.068 97.6461L206.686 96.4118C206.785 96.2126 207.076 96.2336 207.146 96.445C207.325 96.9813 208.084 96.9814 208.263 96.445C208.342 96.2075 208.682 96.2207 208.743 96.4636C208.869 96.968 209.592 96.9505 209.694 96.4406L209.846 95.6794C209.896 95.428 210.247 95.4059 210.328 95.6491ZM214.558 101.835C213.93 101.591 213.227 101.788 212.755 102.27C211.968 103.074 211.399 103.786 210.981 104.548C210.356 105.69 210.01 107.068 210 109.259C210.008 111.491 209.782 113.36 208.93 115.117C208.201 116.618 207.07 117.919 205.49 119.281C205.381 119.374 205.318 119.51 205.318 119.653C205.318 119.921 205.536 120.138 205.804 120.138H206.114C206.221 120.138 206.317 120.207 206.351 120.309C206.486 120.716 207.073 120.68 207.157 120.259L207.411 118.988C207.439 118.848 207.56 118.746 207.703 118.743C207.846 118.739 207.972 118.836 208.006 118.974L208.132 119.478C208.249 119.947 208.905 119.972 209.058 119.514C209.134 119.286 209.456 119.286 209.532 119.514L209.765 120.213C209.902 120.624 210.468 120.665 210.662 120.277C210.705 120.192 210.791 120.138 210.886 120.138H211.094C211.419 120.138 211.682 119.875 211.682 119.551V118.673C211.682 117.863 212.344 117.221 213.14 117.073C216.836 116.388 219.636 113.148 219.637 109.253C219.637 105.874 217.53 102.988 214.558 101.835ZM209.589 99.5153C209.561 99.6552 209.44 99.757 209.297 99.7605C209.154 99.7639 209.028 99.6678 208.994 99.5292L208.868 99.0249C208.751 98.5567 208.095 98.5313 207.942 98.989C207.866 99.217 207.544 99.217 207.468 98.989L207.235 98.2901C207.098 97.879 206.532 97.8387 206.338 98.2263C206.295 98.3113 206.209 98.3649 206.114 98.3649H205.906C205.581 98.3649 205.318 98.6279 205.318 98.9522V99.8313C205.318 100.641 204.656 101.283 203.86 101.431C200.163 102.116 197.363 105.358 197.363 109.253C197.364 112.679 199.53 115.596 202.568 116.715C203.165 116.935 203.828 116.764 204.287 116.324C205.239 115.412 205.839 114.615 206.231 113.806C206.794 112.646 207.009 111.307 207 109.258V109.245C207.012 106.725 207.414 104.816 208.35 103.107C209.118 101.703 210.204 100.52 211.512 99.2893C211.62 99.1878 211.682 99.0465 211.682 98.8984C211.682 98.6038 211.443 98.3649 211.148 98.3649H210.886C210.779 98.3649 210.683 98.2961 210.649 98.194C210.514 97.7874 209.927 97.8238 209.843 98.2439L209.589 99.5153Z" fill="black"/>
<path d="M190.562 212.625L159.562 216.625L155.812 202.5H141.562L138.438 216.625L106.562 213.5L131.438 130.25L166.188 128.5L190.562 212.625ZM153.562 183.375L148.812 161.625L144.188 183.375H153.562ZM225.625 130L218.75 215.125L192.375 216.5V131.75L225.625 130ZM302.812 157.875C302.812 161.917 302.208 165.5 301 168.625C299.792 171.75 298.125 174.479 296 176.812C293.917 179.146 291.458 181.125 288.625 182.75C285.792 184.375 282.75 185.708 279.5 186.75C276.292 187.75 272.958 188.5 269.5 189C266.042 189.458 262.646 189.708 259.312 189.75V218.875H230.188C230.188 209.333 230.208 199.833 230.25 190.375C230.292 180.917 230.354 171.375 230.438 161.75C230.521 156.667 230.542 151.583 230.5 146.5C230.458 141.417 230.562 136.292 230.812 131.125C236.146 129.542 241.479 128.354 246.812 127.562C252.146 126.771 257.646 126.375 263.312 126.375C266.521 126.375 269.729 126.646 272.938 127.188C276.146 127.688 279.208 128.5 282.125 129.625C285.083 130.75 287.812 132.167 290.312 133.875C292.854 135.542 295.042 137.542 296.875 139.875C298.708 142.208 300.146 144.875 301.188 147.875C302.271 150.833 302.812 154.167 302.812 157.875ZM275.062 160C275.062 157.292 274.229 155.188 272.562 153.688C270.938 152.146 268.812 151.375 266.188 151.375C265.312 151.375 264.396 151.458 263.438 151.625C262.521 151.75 261.646 151.917 260.812 152.125L260.062 170.375C260.646 170.458 261.208 170.5 261.75 170.5C262.292 170.5 262.854 170.5 263.438 170.5C264.938 170.5 266.375 170.25 267.75 169.75C269.167 169.25 270.417 168.542 271.5 167.625C272.583 166.667 273.438 165.562 274.062 164.312C274.729 163.021 275.062 161.583 275.062 160ZM365.438 127.875C365.188 131.792 364.958 135.667 364.75 139.5C364.542 143.333 364.271 147.208 363.938 151.125L337.438 152.5L336.812 160.375H355.438L354.062 179.75L335.312 180.375L334.688 189.5H350.188H361.188C360.938 194.083 360.667 198.646 360.375 203.188C360.125 207.688 359.896 212.208 359.688 216.75L305.812 218L307.812 127.875H365.438Z" fill="black"/>
</svg>
